<!-- This is an SVG sprite that we added in its entirety and hidden visually. -->
<svg 
aria-hidden="true" 
xmlns="http://www.w3.org/2000/svg" 
overflow="hidden">
    <defs>

        <!-- Logo Alura -->
        <symbol id="logo-alura">
            <path fill-rule="evenodd" clip-rule="evenodd" d="M23.3958 23.6529C23.3524 23.9311 23.2466 24.1959 23.0863 24.4275C22.926 24.659 22.7154 24.8512 22.4703 24.9898C21.9766 25.3086 21.5447 25.468 21.1077 25.6274C20.177 25.9488 19.1974 26.2702 18.1613 26.643C17.0687 27.0157 16.0891 27.3885 15.215 27.6585C14.1249 28.0313 13.0888 28.3526 12.1041 28.7254C11.3633 29.0425 10.6674 29.4556 10.0345 29.9544C9.44584 30.4877 8.93212 31.0983 8.50734 31.7695C8.07027 32.515 7.79518 33.4766 7.79518 34.5975C7.79518 36.842 8.34022 38.5491 9.43289 39.6161C10.523 40.7396 12.5438 41.2718 15.5389 41.2718C18.5933 41.2718 20.6655 40.6856 21.7607 39.5107C22.8482 38.3357 23.3932 36.6826 23.3932 34.5487V23.6529H23.3958ZM15.5415 0C20.8891 0 24.815 1.01553 27.3217 3.09802C29.831 5.12908 31.0856 7.74119 31.0856 10.8366V37.2148C31.0856 38.2817 30.8696 39.4567 30.4891 40.737C30.1035 42.0225 29.3425 43.1949 28.1418 44.2592C26.9977 45.3313 25.4166 46.2389 23.3984 46.933C21.3802 47.6272 18.7629 48 15.5441 48C12.3304 48 9.70798 47.6272 7.69234 46.933C5.6767 46.2389 4.09298 45.3313 2.9489 44.2592C1.8846 43.3001 1.07834 42.089 0.604178 40.737C0.218532 39.4592 0 38.2843 0 37.2174V33.001C0 30.7565 0.599036 28.674 1.79968 26.8563C3.00032 24.9898 4.68945 23.7095 6.8722 22.9073C7.96229 22.5345 9.21693 22.1618 10.6335 21.681C12.0527 21.1976 13.3588 20.7169 14.6699 20.2927C15.9811 19.8633 17.1252 19.434 18.1048 19.0586C18.6959 18.8221 19.2963 18.6094 19.9044 18.421L20.8866 17.9402C21.2722 17.7268 21.6501 17.4055 22.0332 16.9787C22.4137 16.5545 22.7402 16.0737 23.0153 15.5389C23.306 14.9599 23.4557 14.3203 23.4524 13.6724V11.9627C23.4564 11.3361 23.3249 10.716 23.0667 10.145C22.8508 9.5023 22.4137 8.91612 21.8147 8.38393C21.2156 7.84917 20.3955 7.42239 19.416 7.09845C18.4338 6.78222 17.1278 6.62025 15.6521 6.62025C12.5977 6.62025 10.5795 7.21157 9.48945 8.43535C8.5639 9.50488 8.01885 10.8392 7.91087 12.3329C7.91087 12.6543 7.63835 12.8677 7.30927 12.8677L0.658168 12.9757C0.500177 12.9764 0.348309 12.9146 0.235632 12.8039C0.122956 12.6931 0.0585941 12.5423 0.0565613 12.3844V10.8418C0.0565613 9.3429 0.331655 7.95458 0.930691 6.62025C1.5323 5.28334 2.46042 4.16497 3.71248 3.20086C4.96711 2.24189 6.60482 1.44231 8.56647 0.907552C10.4767 0.26481 12.8214 0 15.5467 0H15.5415Z" fill="#0A3871"/>
        </symbol>

        <!-- Exclamación circulo -->
        <symbol id="exclamacion">
            <g clip-path="url(#clip0_2_231)">
            <path d="M16 8C16 10.1217 15.1571 12.1566 13.6569 13.6569C12.1566 15.1571 10.1217 16 8 16C5.87827 16 3.84344 15.1571 2.34315 13.6569C0.842855 12.1566 0 10.1217 0 8C0 5.87827 0.842855 3.84344 2.34315 2.34315C3.84344 0.842855 5.87827 0 8 0C10.1217 0 12.1566 0.842855 13.6569 2.34315C15.1571 3.84344 16 5.87827 16 8ZM8 4C7.87361 4.00007 7.74863 4.02662 7.63312 4.07793C7.51761 4.12924 7.41413 4.20418 7.32934 4.29791C7.24456 4.39165 7.18035 4.5021 7.14084 4.62217C7.10134 4.74223 7.08743 4.86923 7.1 4.995L7.45 8.502C7.46176 8.63977 7.5248 8.76811 7.62664 8.86164C7.72849 8.95516 7.86173 9.00705 8 9.00705C8.13827 9.00705 8.27151 8.95516 8.37336 8.86164C8.4752 8.76811 8.53824 8.63977 8.55 8.502L8.9 4.995C8.91257 4.86923 8.89866 4.74223 8.85915 4.62217C8.81965 4.5021 8.75544 4.39165 8.67066 4.29791C8.58587 4.20418 8.48239 4.12924 8.36688 4.07793C8.25137 4.02662 8.12639 4.00007 8 4ZM8.002 10C7.73678 10 7.48243 10.1054 7.29489 10.2929C7.10736 10.4804 7.002 10.7348 7.002 11C7.002 11.2652 7.10736 11.5196 7.29489 11.7071C7.48243 11.8946 7.73678 12 8.002 12C8.26722 12 8.52157 11.8946 8.70911 11.7071C8.89664 11.5196 9.002 11.2652 9.002 11C9.002 10.7348 8.89664 10.4804 8.70911 10.2929C8.52157 10.1054 8.26722 10 8.002 10Z" fill="#495057"/>
            </g>
            <defs>
            <clipPath id="clip0_2_231">
            <rect width="16" height="16" fill="white"/>
            </clipPath>
            </defs>
        </symbol>

        <!-- Muñeco Alura -->
        <symbol id="munheco">
            <path d="M225.698 224.238C226.168 223.133 226.666 221.918 227.552 221.062C228.742 219.902 230.181 220.068 231.702 220.399C234.525 221.034 237.292 221.918 240.059 222.719C242.633 223.437 245.206 224.072 247.862 224.376C249.412 224.541 250.713 224.735 252.096 225.425C253.12 225.922 254.005 226.419 255.14 226.53C255.666 226.585 255.666 225.757 255.14 225.701C253.618 225.563 252.428 224.514 250.989 224.044C249.55 223.575 247.945 223.603 246.451 223.354C243.186 222.829 240.004 221.835 236.849 220.896C235.3 220.455 233.75 220.013 232.173 219.654C231.011 219.405 229.793 219.101 228.631 219.46C226.611 220.068 225.642 222.222 224.895 224.017C224.702 224.514 225.504 224.735 225.698 224.238Z" fill="black"/>
<path d="M230.098 233.461C236.019 232.577 241.885 232.439 247.862 232.329C249.938 232.301 252.151 232.053 253.812 230.699C255.223 229.54 256.025 227.855 255.638 226.06C255.527 225.536 254.725 225.756 254.836 226.281C255.361 228.794 253.092 230.644 250.851 231.197C248.554 231.749 246.064 231.473 243.712 231.528C239.063 231.611 234.47 231.997 229.876 232.688C229.35 232.743 229.599 233.544 230.098 233.461Z" fill="black"/>
<path d="M251.1 227.965C253.148 226.502 255.223 225.038 257.271 223.575C257.409 222.636 257.852 220.592 259.54 218.853C260.038 218.328 261.2 217.113 262.943 216.782C264.77 216.423 266.181 217.251 267.758 217.969C270.304 219.129 272.766 219.571 277.637 220.51C281.483 221.228 283.42 221.587 286.187 221.448C289.95 221.228 292.634 220.233 294.239 221.807C294.405 221.973 295.097 222.719 295.042 223.63C294.959 224.79 293.714 225.535 292.717 226.115C288.373 228.601 285.938 229.319 285.938 229.319C279.795 231.113 276.696 232.025 274.039 232.246C271.881 232.411 268.809 232.494 265.102 231.914C264.022 235.615 260.757 237.989 257.686 237.796C253.729 237.548 250.076 233.102 251.1 227.965Z" fill="black"/>
<path d="M211.364 203.554C211.973 201.704 213.107 199.357 215.238 198.584C216.622 198.087 217.894 198.418 218.31 198.529C220.883 199.164 226.168 198.252 236.711 196.457C241.941 195.574 248.554 194.276 256.164 192.343C256.191 193.751 256.164 195.601 256.081 197.755C255.887 202.588 255.389 206.233 255.278 207.089C254.808 210.513 253.978 216.202 251.46 223.105C250.823 224.873 250.187 226.336 249.744 227.33C250.823 227.827 251.985 228.49 253.12 229.429C257.796 233.157 259.152 238.431 259.595 240.668C258.931 241.469 257.935 242.656 256.662 244.009C251.515 249.477 246.756 252.542 237.679 258.148C232.09 261.6 227.994 264.113 221.436 267.979C213.467 272.673 207.02 276.318 198.995 278.61C197.003 279.19 193.848 279.963 189.864 279.549C187.927 279.356 184.44 278.997 181.092 276.567C176.803 273.474 175.447 268.945 174.893 266.957C173.648 262.511 174.119 258.341 175.281 254.006C176.083 250.968 178.989 240.889 189.089 229.539C191.109 227.275 196.864 222.166 208.32 211.949C211.087 209.491 213.356 207.476 214.878 206.15C213.716 205.266 212.554 204.41 211.364 203.554Z" fill="white"/>
<path opacity="0.18" d="M248.997 195.905C248.36 198.335 247.337 201.842 245.787 205.957C231.647 243.347 200.046 259.501 202.62 263.533C204.502 266.515 222.543 259.087 235.549 251.272C245.289 245.418 252.539 239.149 257.381 234.427C256.606 233.295 255.417 231.749 253.618 230.285C251.875 228.877 250.214 228.021 248.969 227.496C249.827 226.253 250.962 224.376 251.93 221.973C252.566 220.427 253.12 218.77 253.839 215.401C255.002 210.071 255.472 205.846 255.61 204.521C255.942 201.345 256.247 197.231 256.191 192.37C253.784 193.53 251.404 194.718 248.997 195.905Z" fill="#9B9797"/>
<path d="M255.776 192.343C255.804 197.562 255.472 202.781 254.753 207.973C254.088 212.639 253.258 217.444 251.543 221.863C249.689 226.64 246.506 230.119 242.66 233.405C238.731 236.747 234.774 240.033 230.817 243.319C226.279 247.102 221.713 250.858 217.175 254.641C216.76 254.972 217.341 255.552 217.756 255.221C226.085 248.317 234.414 241.441 242.688 234.455C246.34 231.362 249.661 228.159 251.653 223.713C253.59 219.405 254.531 214.683 255.278 210.044C256.219 204.189 256.662 198.28 256.606 192.343C256.606 191.791 255.776 191.791 255.776 192.343Z" fill="black"/>
<path d="M211.834 204.328C212.969 204.935 214.104 205.543 215.266 206.15C215.736 206.399 216.151 205.681 215.681 205.432C214.546 204.825 213.412 204.217 212.25 203.61C211.779 203.361 211.364 204.079 211.834 204.328Z" fill="black"/>
<path d="M215.266 205.819C205.415 213.827 195.066 221.752 186.847 231.473C179.764 239.84 173.925 250.444 173.953 261.683C173.953 266.626 175.309 271.79 178.961 275.297C182.614 278.831 187.899 280.212 192.88 279.963C198.967 279.66 204.751 277.257 210.174 274.606C215.985 271.762 221.492 268.393 227.026 265.052C238.426 258.148 251.155 251.714 259.706 241.193C260.038 240.779 259.457 240.199 259.125 240.613C251.958 249.45 241.885 255.11 232.283 260.909C226.998 264.113 221.768 267.371 216.373 270.409C211.087 273.391 205.581 276.235 199.742 277.92C194.263 279.494 188.148 279.825 182.973 277.092C177.993 274.496 175.447 269.47 174.921 264.002C173.897 252.957 179.459 241.966 186.183 233.571C194.568 223.105 205.525 214.766 215.874 206.371C216.262 206.067 215.681 205.487 215.266 205.819Z" fill="black"/>
<path d="M249.55 227.662C254.753 230.147 258.377 235.062 259.235 240.751C259.318 241.276 260.121 241.055 260.038 240.53C259.18 234.648 255.361 229.484 249.993 226.944C249.495 226.723 249.08 227.441 249.55 227.662Z" fill="black"/>
<path d="M251.211 228.38C252.317 227.938 253.203 227.192 254.144 226.474C255.251 225.618 256.385 224.79 257.492 223.934C257.907 223.602 257.492 222.884 257.077 223.216C256.081 223.961 255.085 224.707 254.088 225.48C253.12 226.226 252.151 227.137 250.989 227.579C250.519 227.772 250.713 228.573 251.211 228.38Z" fill="black"/>
<path d="M257.907 223.602C258.46 221.973 259.125 220.371 260.01 218.88C261.228 216.837 263.054 217.058 265.102 217.582C268.284 218.383 271.328 219.598 274.537 220.316C280.763 221.697 287.156 222.166 293.52 221.752C294.046 221.725 294.046 220.896 293.52 220.924C286.021 221.421 278.467 220.648 271.217 218.604C269.474 218.107 267.786 217.472 266.042 216.975C264.714 216.588 263.137 216.146 261.753 216.423C260.508 216.671 259.789 217.61 259.18 218.659C258.322 220.151 257.658 221.752 257.105 223.381C256.939 223.878 257.741 224.099 257.907 223.602Z" fill="black"/>
<path d="M259.097 236.94C261.172 235.366 263.22 233.792 265.295 232.218C265.71 231.887 265.295 231.169 264.88 231.5C262.805 233.074 260.757 234.648 258.682 236.222C258.267 236.553 258.682 237.271 259.097 236.94Z" fill="black"/>
<path d="M265.268 232.025C272.019 233.488 278.909 232.384 285.302 229.954C288.207 228.849 291.528 227.606 294.018 225.729C295.761 224.431 296.01 221.946 293.714 221.062C293.215 220.869 292.994 221.669 293.492 221.863C294.737 222.332 294.876 223.685 294.018 224.624C293.603 225.094 293.022 225.397 292.468 225.729C291.334 226.364 290.172 226.944 289.009 227.496C286.547 228.656 284.001 229.65 281.372 230.423C276.198 231.914 270.774 232.411 265.461 231.252C264.963 231.113 264.742 231.914 265.268 232.025Z" fill="black"/>
<path d="M193.156 112.759C197.362 109.279 203.644 105.082 212.028 102.596C215.957 101.437 220.883 100.001 227.413 100.553C237.43 101.409 244.32 106.324 246.756 108.119C250.574 110.908 253.175 113.863 254.78 115.934C255.085 135.292 255.5 154.677 256.025 174.035C256.191 180 256.357 185.992 256.551 191.957C252.622 194.387 247.115 197.12 240.142 198.722C223.816 202.45 210.23 197.479 204.723 195.077C204.695 190.189 204.391 182.844 202.897 174.035C200.462 159.565 196.671 153.738 194.291 141.284C193.101 134.85 191.967 125.185 193.156 112.759Z" fill="#0A3871"/>
<path d="M243.186 117.536C241.83 119.027 241.581 120.711 241.664 127.173C241.719 133.966 242.079 138.605 242.301 143.99C242.467 147.884 242.605 150.977 242.522 155.008C242.439 160.089 242.107 164.259 241.802 167.048C239.091 170.086 236.683 172.461 234.885 174.173C230.845 178.011 226.445 182.153 219.942 186.047C217.369 187.566 215.155 188.67 213.661 189.361C212.305 189.14 210.783 188.808 209.123 188.394C205.193 187.4 203.561 186.516 200.6 186.516C199.715 186.516 196.92 186.516 196.643 187.51C196.394 188.339 197.944 189.637 199.161 190.272C200.296 190.852 200.794 190.686 201.928 191.211C203.201 191.818 204.031 192.702 204.529 193.365C204.004 194.11 203.201 195.242 202.316 196.706C201.292 198.418 201.07 199.081 199.881 201.124C198.635 203.278 197.999 204.355 197.446 204.907C196.588 205.708 196.062 205.874 192.216 207.586C188.397 209.298 187.733 209.685 187.733 210.154C187.733 210.624 188.48 210.734 191.441 212.004C193.848 213.026 194.07 213.247 195.315 213.606C196.864 214.048 197.805 214.324 198.94 214.075C200.738 213.716 201.901 212.363 202.399 211.645C202.648 211.866 203.256 212.336 204.059 212.363C204.695 212.363 205.221 212.115 205.636 211.783C207.379 210.541 208.237 208.249 209.953 205.681C210.257 205.239 211.336 203.61 213.08 201.787C214.159 200.627 215.155 199.771 215.875 199.191C216.843 198.97 218.282 198.639 219.998 198.142C226.666 196.237 231.481 193.945 235.521 192.012C237.873 190.879 240.53 189.388 245.815 186.433C250.408 183.865 252.788 182.429 254.891 179.613C255.112 179.309 256.247 177.79 257.243 175.553C257.547 174.863 258.627 172.405 259.208 168.098C259.484 166.192 259.484 165.143 259.512 159.178C259.567 151.584 259.567 152.495 259.567 151.722C259.54 140.594 258.959 141.588 258.765 131.37C258.737 130.404 258.71 127.781 257.907 124.467C257.049 120.877 255.97 119.275 255.361 118.475C254.587 117.453 253.646 116.238 252.041 115.547C249.108 114.25 245.206 115.299 243.186 117.536Z" fill="white"/>
<path opacity="0.25" d="M252.068 115.52C252.733 117.701 253.535 120.849 254.088 124.66C254.753 129.272 255.002 134.353 253.507 147.635C252.262 158.736 251.653 164.287 250.048 169.478C247.752 176.879 246.091 182.264 241.028 186.516C237.762 189.25 234.193 190.52 227.026 193.033C221.768 194.883 217.258 195.988 214.159 196.678C211.945 199.661 208.652 203.444 203.976 207.034C200.323 209.85 196.809 211.783 193.904 213.109C194.319 213.385 196.034 214.49 198.359 214.186C201.07 213.827 202.537 211.894 202.786 211.535C203.312 211.922 204.087 212.336 204.944 212.198C206.715 211.922 207.656 209.409 208.127 208.276C209.15 205.929 211.198 202.698 215.791 199.164C218.835 198.363 222.958 197.148 227.745 195.325C234.414 192.757 238.897 190.272 243.712 187.593C251.432 183.285 253.175 181.518 254.448 179.806C256.773 176.686 257.741 173.482 258.156 172.074C258.903 169.561 259.042 166.744 259.318 161.249C259.512 157.162 259.512 154.014 259.512 151.639C259.512 147.552 259.429 144.515 259.346 141.892C259.235 138.081 259.014 133.607 258.46 128.25C258.045 124.356 257.741 122.81 256.856 121.07C255.5 118.309 253.48 116.542 252.068 115.52Z" fill="#9B9797"/>
<path d="M242.771 117.425C241.332 121.015 241.166 124.881 241.249 128.719C241.332 132.944 241.553 137.142 241.747 141.367C242.135 149.927 242.411 158.515 241.387 167.048C241.332 167.573 242.162 167.573 242.218 167.048C243.214 158.709 242.992 150.286 242.605 141.919C242.411 137.777 242.19 133.635 242.079 129.465C241.968 125.461 242.051 121.429 243.573 117.646C243.767 117.149 242.965 116.928 242.771 117.425Z" fill="black"/>
<path d="M242.992 166.33C240.447 167.739 238.399 169.782 236.434 171.908C234.304 174.2 232.173 176.437 229.793 178.481C224.923 182.706 219.444 186.185 213.578 188.891C213.08 189.112 213.522 189.83 213.993 189.609C219.638 187.013 224.923 183.7 229.655 179.696C232.007 177.735 234.165 175.581 236.241 173.344C238.399 170.997 240.557 168.622 243.38 167.076C243.878 166.772 243.463 166.054 242.992 166.33Z" fill="black"/>
<path d="M213.771 188.946C210.728 188.311 207.656 187.648 204.612 186.958C203.09 186.627 201.541 186.213 199.991 185.936C199.023 185.771 197.999 185.688 197.141 186.24C195.813 187.096 195.813 188.67 197.003 189.609C197.861 190.299 198.967 190.603 199.991 190.935C201.652 191.459 203.063 192.122 204.142 193.53C204.474 193.945 205.193 193.53 204.861 193.116C203.893 191.873 202.731 190.99 201.236 190.465C200.213 190.106 199.078 189.885 198.137 189.361C197.473 189.002 196.615 188.449 197.113 187.455C197.584 186.516 198.774 186.599 199.632 186.737C201.928 187.069 204.225 187.731 206.522 188.256C208.874 188.781 211.226 189.278 213.578 189.775C214.076 189.858 214.297 189.057 213.771 188.946Z" fill="black"/>
<path d="M203.478 193.669C202.26 195.905 201.015 198.114 199.798 200.351C199.189 201.428 198.663 202.588 197.944 203.637C197.196 204.714 196.2 205.267 195.038 205.819C192.852 206.841 190.5 207.669 188.397 208.856C187.456 209.409 186.847 210.403 187.65 211.369C188.646 212.557 190.611 212.087 191.939 211.866C193.765 211.563 195.508 210.955 197.169 210.182C200.628 208.525 203.561 205.929 205.664 202.726C205.968 202.284 205.249 201.87 204.944 202.312C203.09 205.184 200.517 207.503 197.501 209.105C196.062 209.851 194.512 210.458 192.935 210.817C192.05 211.038 191.109 211.231 190.168 211.259C189.31 211.314 189.089 211.425 188.674 210.569C188.148 210.071 188.203 209.74 188.812 209.574C189.006 209.492 189.172 209.409 189.365 209.326C191.136 208.497 192.935 207.697 194.706 206.868C196.09 206.233 197.445 205.681 198.386 204.438C199.493 202.975 200.268 201.235 201.153 199.633C202.177 197.783 203.201 195.933 204.197 194.11C204.446 193.613 203.727 193.199 203.478 193.669Z" fill="black"/>
<path d="M216.124 199.716C223.512 197.645 230.679 194.884 237.541 191.459C240.945 189.747 244.265 187.897 247.503 185.854C250.408 184.031 253.48 182.181 255.555 179.392C255.859 178.95 255.14 178.536 254.836 178.978C252.677 181.905 249.301 183.81 246.258 185.688C243.158 187.593 239.948 189.361 236.683 190.99C230.015 194.276 223.069 196.927 215.902 198.943C215.404 199.053 215.625 199.854 216.124 199.716Z" fill="black"/>
<path d="M243.324 118.171C245.621 113.67 251.515 114.691 254.42 117.895C257.907 121.761 258.073 127.422 258.46 132.337C259.291 143.079 259.457 153.904 258.793 164.646C258.46 169.865 257.686 175.388 254.199 179.53C253.867 179.944 254.448 180.524 254.78 180.11C257.907 176.354 258.986 171.605 259.429 166.855C260.01 160.78 260.01 154.622 259.955 148.519C259.899 142.14 259.595 135.734 259.014 129.382C258.571 124.605 257.713 119.331 253.756 116.155C250.38 113.449 244.736 113.532 242.577 117.757C242.356 118.226 243.075 118.64 243.324 118.171Z" fill="black"/>
<path d="M191.192 212.336C193.212 213.247 195.647 214.628 197.944 214.628C200.157 214.6 201.79 212.778 203.284 211.397C207.573 207.42 211.862 203.444 216.151 199.495C216.539 199.136 215.958 198.556 215.57 198.915C211.945 202.284 208.32 205.625 204.695 208.994C203.09 210.458 201.43 212.557 199.41 213.468C197.03 214.545 193.765 212.612 191.635 211.645C191.136 211.397 190.721 212.115 191.192 212.336Z" fill="black"/>
<path d="M202.454 211.756C203.367 213.468 205.387 212.778 206.411 211.59C208.431 209.215 210.008 206.344 211.724 203.775C212.028 203.334 211.309 202.919 211.004 203.361C209.925 204.963 208.846 206.565 207.767 208.166C207.158 209.05 204.474 213.827 203.173 211.342C202.924 210.872 202.205 211.287 202.454 211.756Z" fill="black"/>
<path d="M196.034 210.403C196.864 210.845 197.888 211.287 198.801 210.845C199.272 210.596 199.466 210.21 199.687 209.768C200.074 209.022 200.462 208.442 201.181 207.973C201.624 207.669 201.209 206.951 200.766 207.255C200.102 207.697 199.549 208.249 199.161 208.967C198.884 209.492 198.718 210.127 197.999 210.182C197.473 210.237 196.892 209.906 196.449 209.685C196.007 209.464 195.564 210.154 196.034 210.403Z" fill="black"/>
<path d="M190.362 52.6143C189.393 54.5749 188.425 57.861 188.12 58.9379C187.678 60.4844 186.681 64.1018 186.128 68.9067C185.824 71.5577 185.492 74.4572 185.768 78.2956C185.907 80.1182 186.1 82.9901 187.179 86.5523C187.899 88.9824 188.95 92.4894 191.801 96.0793C194.291 99.1997 197.141 101.16 199.41 102.348C200.849 102.375 202.592 102.293 204.529 101.934C208.016 101.271 210.728 99.9729 212.554 98.9236C212.803 100.332 213.135 101.823 213.55 103.369C214.408 106.573 215.459 109.389 216.511 111.819C217.645 111.626 219.001 111.295 220.44 110.632C225.006 108.506 227.192 104.585 227.967 102.955C227.552 101.354 227.22 99.6139 226.915 97.819C225.864 91.1087 226.141 85.1164 226.805 80.2562C227.386 80.4495 228.327 80.6981 229.489 80.6428C231.758 80.5048 233.307 79.2621 234.082 78.5994C234.746 78.0471 237.762 75.3685 237.652 71.392C237.624 70.4531 237.569 68.1611 235.936 66.9185C234.414 65.7863 232.367 66.2005 230.872 66.5043C229.157 66.8633 227.884 67.5812 227.109 68.0783C227.69 66.1729 228.908 61.2852 227.109 55.5966C226.722 54.3816 224.148 46.6495 216.566 43.3082C206.273 38.7242 193.904 45.5174 190.362 52.6143Z" fill="white"/>
<path opacity="0.24" d="M221.63 52.78C221.851 55.3482 222.018 59.0761 221.63 63.4944C220.44 76.8874 215.127 86.1934 213.744 88.513C211.641 92.0477 208.044 97.1839 202.288 102.237C204.004 102.016 205.968 101.63 208.071 100.884C213.855 98.8408 217.728 95.3338 219.831 93.0418C219.998 96.107 220.523 99.8349 221.768 103.922C222.322 105.662 222.931 107.263 223.567 108.699C225.034 106.794 226.473 104.888 227.939 102.955C227.635 101.16 227.358 99.255 227.164 97.2944C226.528 91.3573 226.528 85.8897 226.86 81.0295C228.105 81.0571 229.904 80.9467 231.813 80.2011C240.17 76.8874 244.929 63.7153 240.419 56.5356C240.225 56.2318 239.229 54.6854 237.181 53.3047C230.845 49.0521 222.792 52.283 221.63 52.78Z" fill="#9B9797"/>
<path d="M188.342 58.1096C187.788 56.2042 187.013 52.5591 187.816 48.0856C188.065 46.7048 188.923 42.2589 191.967 38.7519C196.422 33.6432 202.011 34.6097 209.261 32.014C213.854 30.3848 220.163 26.9606 226.556 18.8972C225.974 21.8795 225.393 24.8895 224.812 27.8718C225.808 28.148 229.157 28.866 232.588 27.1815C238.288 24.3924 238.786 17.6545 238.814 17.3508C239.506 18.8972 240.751 22.3214 240.197 26.6844C239.81 29.6668 238.731 31.9035 237.956 33.2566C238.288 33.6156 240.059 35.4382 242.107 35.162C244.597 34.8307 246.922 31.4341 246.257 27.0434C246.811 28.6727 247.475 31.3513 247.309 34.6374C247.088 38.6414 245.759 41.6514 244.874 43.2807C245.095 43.474 246.506 44.7442 248.499 44.4957C250.242 44.2748 251.736 43.0045 252.317 41.2096C252.179 43.0597 251.847 45.7383 250.768 48.8035C249.301 52.9457 248.084 53.2771 247.475 56.2318C246.506 60.871 248.997 62.445 248.333 66.5872C247.779 70.0666 245.51 72.2481 242.633 75.0372C237.403 80.0906 231.398 82.8244 226.362 84.3432C226.583 82.7968 226.832 81.2504 227.054 79.704C227.69 80.0906 228.797 80.6153 230.18 80.5601C233.003 80.4496 234.774 77.9367 235.715 76.5836C236.794 75.0648 238.593 72.4691 237.624 69.68C236.822 67.4156 234.691 66.4767 234.497 66.3939C232.007 65.3445 228.797 66.2834 226.722 68.824C225.559 64.2676 224.425 59.7388 223.263 55.1825C219.333 52.6972 215.432 50.2395 211.502 47.7542C209.565 47.3952 204.28 46.6772 198.359 49.3006C192.382 51.9516 189.338 56.4527 188.342 58.1096Z" fill="#0A3871"/>
<path d="M187.927 57.9992C185.575 66.7805 184.163 76.1142 186.322 85.0889C188.093 92.3791 192.575 100.691 200.213 103.066C200.711 103.232 200.932 102.431 200.434 102.265C192.769 99.8902 188.48 91.2469 186.903 83.9567C185.049 75.3962 186.46 66.5596 188.701 58.2201C188.867 57.723 188.065 57.5021 187.927 57.9992Z" fill="black"/>
<path d="M200.821 102.928C213.578 101.63 224.231 92.4342 227.22 79.9525C227.33 79.4278 226.556 79.2069 226.417 79.7316C223.512 91.7991 213.246 100.829 200.821 102.099C200.296 102.154 200.268 102.983 200.821 102.928Z" fill="black"/>
<path d="M226.5 80.1734C232.201 83.6528 237.762 76.3626 238.122 71.254C238.316 68.5478 237.071 66.4767 234.387 65.7035C231.896 64.9855 229.184 65.7311 227.413 67.6089C227.054 67.9955 227.635 68.5754 227.995 68.1888C229.461 66.6147 231.675 65.9244 233.805 66.3938C234.912 66.6424 236.13 67.2499 236.766 68.244C237.458 69.321 237.375 70.8121 237.209 71.9995C236.545 76.2798 231.785 82.4102 226.915 79.4278C226.473 79.1793 226.03 79.8973 226.5 80.1734Z" fill="black"/>
<path d="M226.445 80.1182C225.366 87.7674 225.753 95.527 227.579 103.038C227.718 103.563 228.52 103.342 228.382 102.817C226.583 95.4442 226.196 87.8226 227.247 80.3391C227.303 79.8144 226.5 79.5935 226.445 80.1182Z" fill="black"/>
<path d="M212.139 99.034C212.997 103.508 214.325 107.843 216.151 112.04C216.373 112.537 217.092 112.096 216.871 111.626C215.072 107.512 213.772 103.231 212.941 98.8131C212.831 98.2885 212.056 98.5094 212.139 99.034Z" fill="black"/>
<path d="M216.732 112.151C222.073 111.295 226.583 107.622 228.603 102.624C228.797 102.127 227.995 101.906 227.801 102.403C225.892 107.153 221.547 110.549 216.511 111.35C215.985 111.433 216.207 112.234 216.732 112.151Z" fill="black"/>
<path d="M212.803 100C213.938 100.056 214.712 99.2825 215.57 98.6197C216.705 97.7361 217.784 96.7972 218.78 95.8031C220.634 93.9529 222.128 91.8266 223.097 89.3965C223.29 88.8995 222.488 88.6786 222.294 89.1756C221.436 91.3295 220.108 93.2349 218.503 94.8918C217.784 95.665 217.009 96.3554 216.207 97.0457C215.321 97.7913 214.048 99.2273 212.803 99.172C212.277 99.1444 212.277 99.9728 212.803 100Z" fill="black"/>
<path d="M212.858 99.5589C215.21 98.0401 217.396 96.3004 219.444 94.395C219.831 94.036 219.25 93.4285 218.863 93.8151C216.871 95.6929 214.74 97.3774 212.443 98.8685C211.973 99.1171 212.416 99.835 212.858 99.5589Z" fill="black"/>
<path d="M196.588 59.6008C195.038 66.6424 194.153 73.7946 193.959 81.0019C193.959 81.4161 194.512 81.5542 194.734 81.2228C195.813 79.5107 196.892 77.771 197.971 76.0589C198.248 75.6171 197.529 75.1753 197.252 75.6447C196.173 77.3568 195.094 79.0965 194.014 80.8086C194.263 80.8915 194.54 80.9467 194.789 81.0295C194.983 73.905 195.868 66.8081 197.39 59.8493C197.501 59.297 196.698 59.0761 196.588 59.6008Z" fill="black"/>
<path d="M197.695 91.3849C197.03 90.1423 196.588 88.8168 196.477 87.4084C196.394 86.4143 196.615 82.3826 198.497 83.9842C199.493 84.8403 199.355 86.7181 199.382 87.9607C199.382 88.5406 199.382 89.1481 199.327 89.728C199.299 90.1423 199.244 90.5565 199.161 90.9431C198.442 91.4401 197.888 91.4125 197.529 90.8879C197.169 90.5013 196.56 91.0812 196.947 91.4678C198.137 92.6828 199.687 92.738 200.019 90.8326C200.268 89.4795 200.268 88.0436 200.157 86.6905C200.074 85.6135 200.074 84.0671 199.272 83.2387C198.082 82.0236 196.394 83.1558 195.924 84.4537C195.066 86.7733 195.896 89.7004 197.003 91.7991C197.224 92.2686 197.944 91.8544 197.695 91.3849Z" fill="black"/>
<path d="M203.422 66.5319C204.253 70.4256 209.372 70.7293 210.894 67.1395C211.087 66.6424 210.285 66.4215 210.091 66.9185C208.846 69.8457 204.861 69.2934 204.225 66.311C204.114 65.814 203.312 66.0073 203.422 66.5319Z" fill="black"/>
<path d="M201.79 56.9498C202.841 54.6025 205.553 53.4703 208.044 53.995C210.617 54.5473 212.582 56.5355 213.855 58.7171C214.131 59.1865 214.851 58.7723 214.574 58.3029C213.107 55.79 210.783 53.5532 207.795 53.1114C205.11 52.7248 202.233 53.995 201.07 56.5079C200.849 57.0326 201.569 57.4468 201.79 56.9498Z" fill="black"/>
<path d="M185.575 57.8611C186.322 56.3147 187.622 54.6302 189.532 54.6578C191.358 54.6855 192.686 56.2871 193.599 57.6954C193.876 58.1373 194.595 57.723 194.319 57.2812C193.267 55.5967 191.69 53.857 189.532 53.8294C187.318 53.8018 185.768 55.6244 184.883 57.4469C184.634 57.9163 185.353 58.3306 185.575 57.8611Z" fill="black"/>
<path d="M190.472 70.3704C190.961 70.3704 191.358 68.553 191.358 66.3111C191.358 64.0692 190.961 62.2518 190.472 62.2518C189.983 62.2518 189.587 64.0692 189.587 66.3111C189.587 68.553 189.983 70.3704 190.472 70.3704Z" fill="black"/>
<path d="M193.018 114.056C192.935 115.078 192.824 116.486 192.769 118.116C192.52 123.694 192.741 127.919 192.824 129.051C193.046 132.724 193.544 137.529 194.706 143.107C193.599 144.377 191.939 146.255 189.808 148.464C185.768 152.689 183.693 154.843 180.372 157.08C176.664 159.565 174.091 160.338 172.707 160.697C170.964 161.111 169.304 161.498 167.284 161.056C163.991 160.31 162.026 157.88 161.307 156.941C159.481 154.622 159.066 152.357 158.318 147.939C157.765 144.708 157.654 142.251 157.488 137.501C157.405 135.237 157.295 132.475 157.35 128.775C157.405 124.605 157.627 119.662 158.235 114.139C158.512 111.654 158.899 108.589 159.508 105.109C159.038 104.447 158.54 103.784 158.014 103.093C157.461 102.375 156.935 101.685 156.381 100.995C154.97 102.182 153.587 103.397 152.175 104.585C151.816 104.723 151.179 104.944 150.404 104.861C148.938 104.723 148.08 103.701 147.776 103.37C146.42 101.823 146.613 99.8626 146.669 99.476C148.578 97.4049 150.487 95.3614 152.424 93.2903C152.452 92.1029 152.618 90.5565 153.089 88.8444C153.448 87.5742 153.891 86.5248 154.306 85.6412C154.666 84.9232 155.164 84.1224 155.8 83.3216C156.935 81.8304 158.152 80.781 159.149 80.0631C158.346 80.4221 158.152 80.4221 158.097 80.3668C157.959 80.1459 159.259 78.5167 161.086 78.351C162.109 78.2405 162.912 78.6271 163.465 78.8757C164.323 79.2899 164.904 79.8145 165.264 80.2011C166.979 78.7376 168.695 77.274 170.411 75.8381C171.019 76.1971 171.628 76.6113 172.237 77.0255C173.648 77.992 174.921 78.9585 176.056 79.8974C175.641 80.4221 175.115 81.002 174.451 81.5819C173.344 82.5484 172.237 83.1283 171.379 83.5149C171.905 83.6805 172.846 84.0671 173.316 84.9784C173.787 85.8621 173.593 86.8286 173.316 88.0436C173.122 88.872 172.873 89.5348 172.68 89.9766C172.79 91.1364 172.846 92.7104 172.514 94.4778C171.988 97.3773 170.77 99.5312 169.94 100.774C169.913 101.851 169.885 103.535 169.94 105.606C170.162 114.139 171.407 119.137 172.209 125.433C172.68 129.023 173.15 134.353 173.012 141.063C173.648 140.649 174.561 139.986 175.585 139.13C178.186 136.949 179.847 134.767 182.033 131.564C184.191 128.443 185.602 126.124 187.512 123.031C188.701 121.015 190.611 117.95 193.018 114.056Z" fill="white"/>
<path opacity="0.24" d="M167.865 88.8444C167.284 90.1146 166.703 91.4125 166.122 92.738C164.434 96.7145 163.05 100.525 161.916 104.17C161.667 109.914 161.528 114.719 161.418 118.198C161.279 123.473 161.611 129.769 162.22 142.361C162.469 147.553 162.69 150.701 165.126 152.993C167.671 155.367 171.213 155.423 173.205 155.423C183.831 155.395 191.773 146.365 193.959 143.742C190.998 148.768 187.622 152.054 185.325 153.987C182.724 156.168 179.376 158.902 174.174 160.255C169.774 161.415 167.782 161.166 167.256 161.056C163.465 160.145 161.362 156.997 160.615 155.92C158.816 153.241 158.235 150.452 157.903 144.46C157.571 138.302 157.931 136.672 158.042 128.195C158.125 120.104 157.82 117.812 158.429 112.206C158.789 108.92 159.232 106.214 159.591 104.391C158.512 103.259 157.433 102.127 156.354 101.022C155.441 101.823 154.5 102.596 153.559 103.397C152.95 103.922 152.314 104.446 151.705 104.944C151.152 104.999 150.349 104.971 149.491 104.612C147.278 103.673 145.894 100.939 146.586 100.001C147.029 99.3654 148.191 99.8625 149.796 99.8625C152.563 99.8901 154.417 98.4818 158.097 95.8308C160.698 93.9254 163.687 91.7991 167.865 88.8444Z" fill="#9B9797"/>
<path d="M192.658 113.835C186.266 122.644 181.535 132.751 173.455 140.262C173.067 140.621 173.648 141.201 174.036 140.842C182.171 133.276 186.93 123.114 193.378 114.25C193.71 113.835 192.99 113.421 192.658 113.835Z" fill="black"/>
<path d="M168.861 161.691C179.819 160.973 187.678 151.805 194.263 144.018C194.595 143.604 194.014 143.024 193.682 143.438C187.29 151.06 179.542 160.172 168.889 160.89C168.335 160.89 168.335 161.719 168.861 161.691Z" fill="black"/>
<path d="M163.659 83.9015C163.714 86.083 165.153 87.9608 167.256 88.5683C167.782 88.7064 168.003 87.9056 167.478 87.7675C165.734 87.2704 164.544 85.6964 164.489 83.9015C164.461 83.3768 163.631 83.3768 163.659 83.9015Z" fill="black"/>
<path d="M164.517 83.6529C164.793 81.2505 169.082 82.9902 170.245 83.5977C171.379 84.1776 172.514 84.7575 172.763 86.1382C172.956 87.1876 172.624 88.2921 172.348 89.3139C172.209 89.8385 173.012 90.0595 173.15 89.5348C173.538 88.1541 173.953 86.58 173.372 85.2269C172.818 83.8462 171.296 83.2111 170.051 82.6036C168.778 81.9961 167.395 81.5542 165.956 81.7199C165.375 81.8028 164.627 81.9408 164.157 82.3274C163.659 82.714 163.77 82.9902 163.687 83.6805C163.631 84.1776 164.461 84.1776 164.517 83.6529Z" fill="black"/>
<path d="M172.071 89.1482C171.988 91.2469 172.458 93.2903 171.96 95.389C171.49 97.322 170.549 99.1169 169.608 100.857C169.359 101.326 170.079 101.74 170.328 101.271C171.296 99.4483 172.265 97.5981 172.763 95.6099C173.289 93.456 172.818 91.3297 172.901 89.1482C172.929 88.5959 172.099 88.5959 172.071 89.1482Z" fill="black"/>
<path d="M169.608 100.884C168.972 115.437 173.15 129.686 172.486 144.239C172.458 144.763 173.288 144.763 173.316 144.239C173.98 129.686 169.802 115.437 170.438 100.884C170.466 100.359 169.636 100.359 169.608 100.884Z" fill="black"/>
<path d="M156.022 101.188C156.852 102.348 157.737 103.452 158.733 104.474C159.093 104.861 159.674 104.281 159.315 103.894C158.374 102.9 157.516 101.878 156.741 100.774C156.409 100.332 155.69 100.746 156.022 101.188Z" fill="black"/>
<path d="M159.204 104.253C157.627 113.228 156.852 122.341 156.879 131.453C156.907 135.982 157.129 140.538 157.571 145.04C157.931 148.878 158.374 152.91 160.394 156.279C162.22 159.344 165.43 161.663 169.083 161.581C169.608 161.553 169.608 160.725 169.083 160.752C163.963 160.89 160.67 156.334 159.481 151.86C158.152 146.945 158.042 141.588 157.848 136.534C157.433 125.82 158.18 115.05 160.034 104.502C160.089 103.949 159.287 103.728 159.204 104.253Z" fill="black"/>
<path d="M153.974 91.8543C151.373 94.0359 148.855 96.3278 146.475 98.7303C146.088 99.1169 146.696 99.6968 147.056 99.3102C149.464 96.9078 151.954 94.6157 154.555 92.4342C154.97 92.1028 154.389 91.5229 153.974 91.8543Z" fill="black"/>
<path d="M146.226 99.4759C145.811 102.679 148.246 105.385 151.484 105.358C152.009 105.358 152.009 104.529 151.484 104.529C148.689 104.557 146.696 102.21 147.056 99.4759C147.139 98.9512 146.309 98.9512 146.226 99.4759Z" fill="black"/>
<path d="M147.001 99.2827C149.906 99.3655 151.926 101.961 151.318 104.778C151.207 105.303 152.009 105.524 152.12 104.999C152.867 101.602 150.487 98.5647 147.001 98.4542C146.475 98.4542 146.475 99.2827 147.001 99.2827Z" fill="black"/>
<path d="M152.452 104.861C155.607 101.989 158.816 99.1445 161.888 96.1898C163.299 94.8367 164.655 93.456 165.928 91.9648C166.62 91.164 168.363 89.59 168.391 88.4854C168.391 88.3473 168.308 88.1816 168.197 88.1264C168.142 88.0988 168.086 88.0712 168.059 88.0712C167.893 87.9883 167.671 87.9883 167.561 88.1264C167.533 88.154 167.505 88.1816 167.478 88.2369C167.146 88.6511 167.727 89.231 168.059 88.8168C168.086 88.7892 168.114 88.7615 168.142 88.7063C167.976 88.7339 167.81 88.7615 167.644 88.7615C167.588 88.513 167.505 88.513 167.395 88.7892C167.256 88.9825 167.118 89.1758 166.952 89.3691C166.62 89.7833 166.315 90.1975 165.956 90.6117C165.402 91.3021 164.793 91.9648 164.212 92.6276C162.995 93.953 161.722 95.1957 160.421 96.4107C157.599 99.0617 154.721 101.63 151.871 104.253C151.456 104.64 152.065 105.22 152.452 104.861Z" fill="black"/>
<path d="M152.812 93.4007C153.006 92.0752 153.199 90.7498 153.393 89.4243C153.531 88.4301 153.642 87.3256 154.195 86.4419C155.468 84.3985 157.267 85.862 158.235 87.2427C158.65 87.8226 159.038 88.4578 159.453 89.0377C159.674 89.369 160.753 90.5565 160.615 90.9707C160.753 90.8602 160.892 90.7774 161.003 90.6669C160.947 90.6669 160.92 90.6669 160.864 90.6669C160.338 90.6393 160.338 91.4677 160.864 91.4953C160.92 91.4953 160.947 91.4953 161.003 91.4953C161.196 91.4953 161.362 91.3573 161.39 91.1916C161.584 90.5012 161.113 90.087 160.753 89.5347C160.062 88.513 159.398 87.4636 158.678 86.4695C157.931 85.4478 156.963 84.4537 155.579 84.5917C154.251 84.7298 153.448 85.7516 153.033 86.939C152.341 88.8996 152.286 91.1364 151.982 93.1798C151.926 93.7045 152.729 93.9254 152.812 93.4007Z" fill="black"/>
<path d="M154.112 90.2804C154.86 91.744 156.105 93.2352 157.876 93.3456C159.342 93.4561 160.726 92.6276 161.113 91.1917C161.252 90.667 160.449 90.4461 160.311 90.9708C159.951 92.2963 158.484 92.7933 157.267 92.3791C156.105 91.9649 155.358 90.9432 154.832 89.8938C154.583 89.3967 153.863 89.811 154.112 90.2804Z" fill="black"/>
<path d="M155.136 84.8956C155.275 83.5425 156.824 83.1835 157.876 83.5425C158.983 83.9015 159.84 84.8956 160.615 85.6964C161.224 86.3316 162.414 87.2152 162.58 88.0989C162.801 89.2863 161.307 90.0871 160.311 90.3909C159.813 90.5289 160.006 91.3298 160.532 91.1917C161.75 90.8327 163.521 89.7557 163.714 88.3198C163.797 87.7399 163.438 87.4361 163.05 87.0219C162.275 86.1935 161.528 85.3927 160.726 84.5919C159.647 83.4873 158.263 82.2999 156.603 82.576C155.358 82.7693 154.444 83.5977 154.306 84.868C154.251 85.4203 155.081 85.4203 155.136 84.8956Z" fill="black"/>
<path d="M156.63 82.8521C157.018 82.4103 157.212 81.8304 157.571 81.3886C158.457 80.284 159.84 81.3057 160.753 81.9685C162.524 83.2111 164.406 85.4755 162.801 87.6294C162.497 88.0712 163.216 88.4854 163.521 88.0436C165.236 85.724 163.548 83.0454 161.584 81.5542C160.67 80.8639 159.287 79.6212 158.042 79.9802C156.935 80.284 156.741 81.5542 156.049 82.2998C155.69 82.6588 156.271 83.2387 156.63 82.8521Z" fill="black"/>
<path d="M159.425 80.3391C160.394 79.1517 161.667 77.9091 163.161 79.1517C164.157 79.9525 164.793 81.0847 165.153 82.2721C165.319 82.7692 166.094 82.5759 165.956 82.0512C165.485 80.4496 164.406 78.5994 162.801 77.9367C161.169 77.2739 159.813 78.5718 158.844 79.7592C158.512 80.1458 159.093 80.7533 159.425 80.3391Z" fill="black"/>
<path d="M165.541 80.4496C167.256 78.986 168.972 77.5225 170.687 76.0865C171.102 75.7276 170.494 75.1476 170.106 75.5066C168.391 76.9702 166.675 78.4338 164.959 79.8697C164.544 80.2287 165.153 80.8086 165.541 80.4496Z" fill="black"/>
<path d="M171.656 83.9842C173.289 82.7968 174.866 81.5266 176.332 80.1459C176.72 79.7869 176.139 79.207 175.751 79.566C174.312 80.8914 172.818 82.1341 171.241 83.2663C170.798 83.57 171.213 84.288 171.656 83.9842Z" fill="black"/>
<path d="M184.08 81.9132C193.311 81.9132 200.794 74.4457 200.794 65.2341C200.794 56.0225 193.311 48.5551 184.08 48.5551C174.85 48.5551 167.367 56.0225 167.367 65.2341C167.367 74.4457 174.85 81.9132 184.08 81.9132Z" stroke="black" stroke-width="3" stroke-miterlimit="10"/>
<path d="M173.953 67.2776C180.096 63.3563 186.377 59.656 192.797 56.1766C193.267 55.9281 192.852 55.2101 192.382 55.4586C185.962 58.9104 179.681 62.6108 173.538 66.5596C173.095 66.8634 173.51 67.5813 173.953 67.2776Z" fill="black"/>
<path d="M174.644 74.5125C179.708 70.8122 184.827 67.25 190.057 63.7706C190.5 63.4668 190.085 62.7488 189.642 63.0526C184.44 66.532 179.293 70.1219 174.229 73.7946C173.787 74.0983 174.202 74.8163 174.644 74.5125Z" fill="black"/>
</g>
<defs>
<clipPath id="clip0_2_1323">
<rect width="336" height="304" fill="white"/>
</clipPath>
</defs>
       
</symbol>
        <!-- Email -->
        <symbol id="email">
            <g clip-path="url(#clip0_1_3135)">
            <path d="M15 3H3C2.175 3 1.5075 3.675 1.5075 4.5L1.5 13.5C1.5 14.325 2.175 15 3 15H15C15.825 15 16.5 14.325 16.5 13.5V4.5C16.5 3.675 15.825 3 15 3ZM14.7 6.1875L9.3975 9.5025C9.1575 9.6525 8.8425 9.6525 8.6025 9.5025L3.3 6.1875C3.1125 6.0675 3 5.865 3 5.6475C3 5.145 3.5475 4.845 3.975 5.1075L9 8.25L14.025 5.1075C14.4525 4.845 15 5.145 15 5.6475C15 5.865 14.8875 6.0675 14.7 6.1875Z"/>
            </g>
            <defs>
            <clipPath id="clip0_1_3135">
            <rect width="18" height="18" fill="white"/>
            </clipPath>
            </defs>
        </symbol>

        <!-- person -->
        <symbol id="person">
            <g clip-path="url(#clip0_1_3124)">
            <path d="M9 9C10.6575 9 12 7.6575 12 6C12 4.3425 10.6575 3 9 3C7.3425 3 6 4.3425 6 6C6 7.6575 7.3425 9 9 9ZM9 10.5C6.9975 10.5 3 11.505 3 13.5V14.25C3 14.6625 3.3375 15 3.75 15H14.25C14.6625 15 15 14.6625 15 14.25V13.5C15 11.505 11.0025 10.5 9 10.5Z"/>
            </g>
            <defs>
            <clipPath id="clip0_1_3124">
            </clipPath>
            </defs>
        </symbol>

        <!-- celphone -->
        <symbol id="celphone">
            <g clip-path="url(#clip0_1_3130)">
            <path d="M13.996 11.1226L12.1579 10.9127C11.7164 10.8621 11.2822 11.0141 10.971 11.3252L9.63945 12.6568C7.59144 11.6147 5.91251 9.94301 4.87041 7.88775L6.20922 6.54894C6.5204 6.23775 6.67237 5.80355 6.62171 5.3621L6.41185 3.53842C6.325 2.8075 5.70988 2.2575 4.97173 2.2575H3.71976C2.902 2.2575 2.22175 2.93776 2.2724 3.75552C2.65595 9.93577 7.59868 14.8713 13.7717 15.2548C14.5894 15.3055 15.2697 14.6252 15.2697 13.8075V12.5555C15.2769 11.8246 14.7269 11.2095 13.996 11.1226Z"/>
            </g>
            <defs>
            <clipPath id="clip0_1_3130">
            <rect width="18" height="18" fill="white"/>
            </clipPath>
            </defs>
        </symbol>

        <!-- telegram -->
        <symbol id="telegram">
            <path d="M24 0L0 13.5L7.66994 16.3407L19.5 5.25002L10.5017 17.3896L10.509 17.3923L10.5 17.3896V24.0001L14.8013 18.982L20.2501 21.0001L24 0Z"/>
        </symbol>

        <!-- sobre email -->
        <symbol id="emaill">
            <path d="M14.5 0H1.50001C0.672854 0 0 0.672853 0 1.50001V10.5C0 11.3271 0.672854 12 1.50001 12H14.5C15.3271 12 16 11.3271 16 10.5V1.50001C16 0.672853 15.3271 0 14.5 0ZM14.5 0.999994C14.5679 0.999994 14.6325 1.01409 14.6916 1.0387L8 6.83838L1.30833 1.0387C1.36742 1.01412 1.43204 0.999994 1.49998 0.999994H14.5ZM14.5 11H1.50001C1.22414 11 0.999996 10.7759 0.999996 10.5V2.09521L7.67236 7.87792C7.76661 7.95944 7.8833 7.99999 8 7.99999C8.1167 7.99999 8.23339 7.95948 8.32764 7.87792L15 2.09521V10.5C15 10.7759 14.7759 11 14.5 11Z" />
        </symbol>

        <!-- celular -->
        <symbol id="celphonee">
            <path d="M8.5 0H1.5C0.672848 0 0 0.672848 0 1.5V14.5C0 15.3272 0.672848 16 1.5 16H8.5C9.32715 16 10 15.3272 10 14.5V1.5C10 0.672848 9.32715 0 8.5 0ZM1.5 1H8.5C8.77588 1 9 1.22412 9 1.5V12H1V1.5C1 1.22412 1.22412 1 1.5 1ZM8.5 15H1.5C1.22412 15 1 14.7759 1 14.5V13H9V14.5C9 14.7759 8.77588 15 8.5 15Z"/>
            <path d="M2.35355 13.7389C2.54882 13.9213 2.54882 14.2169 2.35355 14.3992C2.15828 14.5816 1.84172 14.5816 1.64645 14.3992C1.45118 14.2169 1.45118 13.9213 1.64645 13.7389C1.84172 13.5566 2.15828 13.5566 2.35355 13.7389Z"/>
        </symbol>

        <!-- Instagram -->
        <symbol id="instagram">
            <g clip-path="url(#clip0_75273_659)">
                <path d="M19.9804 5.88005C19.9336 4.81738 19.7617 4.0868 19.5156 3.45374C19.2616 2.78176 18.8709 2.18014 18.359 1.68002C17.8589 1.1721 17.2533 0.777435 16.5891 0.527447C15.9524 0.281274 15.2256 0.109427 14.163 0.0625732C13.0924 0.0117516 12.7525 0 10.0371 0C7.32173 0 6.98185 0.0117516 5.91521 0.0586052C4.85253 0.105459 4.12195 0.277459 3.48904 0.523479C2.81692 0.777435 2.2153 1.16814 1.71517 1.68002C1.20726 2.18014 0.812743 2.78573 0.562603 3.44992C0.31643 4.0868 0.144583 4.81341 0.0977294 5.87609C0.0469078 6.9467 0.0351562 7.28658 0.0351562 10.002C0.0351562 12.7173 0.0469078 13.0572 0.0937614 14.1239C0.140615 15.1865 0.312615 15.9171 0.558787 16.5502C0.812743 17.2221 1.20726 17.8238 1.71517 18.3239C2.2153 18.8318 2.82088 19.2265 3.48508 19.4765C4.12195 19.7226 4.84856 19.8945 5.91139 19.9413C6.97788 19.9883 7.31791 19.9999 10.0333 19.9999C12.7487 19.9999 13.0885 19.9883 14.1552 19.9413C15.2179 19.8945 15.9484 19.7226 16.5813 19.4765C17.9254 18.9568 18.9881 17.8941 19.5078 16.5502C19.7538 15.9133 19.9258 15.1865 19.9727 14.1239C20.0195 13.0572 20.0313 12.7173 20.0313 10.002C20.0313 7.28658 20.0273 6.9467 19.9804 5.88005ZM18.1794 14.0457C18.1364 15.0225 17.9723 15.5499 17.8356 15.9015C17.4995 16.7728 16.808 17.4643 15.9367 17.8004C15.5851 17.9372 15.0538 18.1012 14.0809 18.1441C13.026 18.1911 12.7096 18.2027 10.0411 18.2027C7.37255 18.2027 7.05221 18.1911 6.00113 18.1441C5.02438 18.1012 4.49693 17.9372 4.1453 17.8004C3.71171 17.6402 3.31704 17.3862 2.9967 17.0541C2.6646 16.7298 2.41065 16.3391 2.2504 15.9055C2.11365 15.5539 1.94959 15.0225 1.90671 14.0497C1.8597 12.9948 1.8481 12.6783 1.8481 10.0097C1.8481 7.34122 1.8597 7.02087 1.90671 5.96995C1.94959 4.99319 2.11365 4.46575 2.2504 4.11412C2.41065 3.68038 2.6646 3.28586 3.00067 2.96536C3.32483 2.63327 3.71553 2.37931 4.14927 2.21921C4.5009 2.08247 5.03231 1.9184 6.0051 1.87537C7.05999 1.82851 7.37652 1.81676 10.0449 1.81676C12.7174 1.81676 13.0337 1.82851 14.0848 1.87537C15.0616 1.9184 15.589 2.08247 15.9407 2.21921C16.3742 2.37931 16.7689 2.63327 17.0893 2.96536C17.4213 3.28967 17.6753 3.68038 17.8356 4.11412C17.9723 4.46575 18.1364 4.99701 18.1794 5.96995C18.2263 7.02484 18.238 7.34122 18.238 10.0097C18.238 12.6783 18.2263 12.9908 18.1794 14.0457Z"/>
                <path d="M10.0371 4.8642C7.20068 4.8642 4.89935 7.16537 4.89935 10.0019C4.89935 12.8385 7.20068 15.1396 10.0371 15.1396C12.8736 15.1396 15.1748 12.8385 15.1748 10.0019C15.1748 7.16537 12.8736 4.8642 10.0371 4.8642ZM10.0371 13.3346C8.19696 13.3346 6.70436 11.8422 6.70436 10.0019C6.70436 8.16165 8.19696 6.66921 10.0371 6.66921C11.8773 6.66921 13.3698 8.16165 13.3698 10.0019C13.3698 11.8422 11.8773 13.3346 10.0371 13.3346V13.3346Z"/>
                <path d="M16.5775 4.6611C16.5775 5.32346 16.0405 5.86052 15.378 5.86052C14.7156 5.86052 14.1785 5.32346 14.1785 4.6611C14.1785 3.99858 14.7156 3.46167 15.378 3.46167C16.0405 3.46167 16.5775 3.99858 16.5775 4.6611V4.6611Z"/>
            </g>
            <defs>
                <clipPath id="clip0_75273_659">
                    <rect width="20" height="20" fill="white" />
                </clipPath>
            </defs>
        </symbol>

        <!-- Twitter -->
        <symbol id="twitter">
            <g clip-path="url(#clip0_75273_653)">
                <path d="M20 3.79875C19.2562 4.125 18.4637 4.34125 17.6375 4.44625C18.4875 3.93875 19.1363 3.14125 19.4413 2.18C18.6488 2.6525 17.7737 2.98625 16.8412 3.1725C16.0887 2.37125 15.0162 1.875 13.8462 1.875C11.5762 1.875 9.74875 3.7175 9.74875 5.97625C9.74875 6.30125 9.77625 6.61375 9.84375 6.91125C6.435 6.745 3.41875 5.11125 1.3925 2.6225C1.03875 3.23625 0.83125 3.93875 0.83125 4.695C0.83125 6.115 1.5625 7.37375 2.6525 8.1025C1.99375 8.09 1.3475 7.89875 0.8 7.5975C0.8 7.61 0.8 7.62625 0.8 7.6425C0.8 9.635 2.22125 11.29 4.085 11.6712C3.75125 11.7625 3.3875 11.8062 3.01 11.8062C2.7475 11.8062 2.4825 11.7912 2.23375 11.7362C2.765 13.36 4.2725 14.5537 6.065 14.5925C4.67 15.6837 2.89875 16.3412 0.98125 16.3412C0.645 16.3412 0.3225 16.3262 0 16.285C1.81625 17.4562 3.96875 18.125 6.29 18.125C13.835 18.125 17.96 11.875 17.96 6.4575C17.96 6.27625 17.9537 6.10125 17.945 5.9275C18.7587 5.35 19.4425 4.62875 20 3.79875Z"/>
            </g>
            <defs>
                <clipPath id="clip0_75273_653">
                    <rect width="20" height="20" fill="white" />
                </clipPath>
            </defs>
        </symbol>

        <!-- Facebook -->
        <symbol id="facebook">
            <path d="M13.3308 3.32083H15.1567V0.140833C14.8417 0.0975 13.7583 0 12.4967 0C9.86416 0 8.06082 1.65583 8.06082 4.69917V7.5H5.15582V11.055H8.06082V20H11.6225V11.0558H14.41L14.8525 7.50083H11.6217V5.05167C11.6225 4.02417 11.8992 3.32083 13.3308 3.32083V3.32083Z"/>
                </g>
                  <defs>
                    <clipPath id="clip0_75273_649">
                      <rect width="20" height="20" fill="white" />
                    </clipPath>
                  </defs>
        </symbol>

        <!-- LinkedIn -->
        <symbol id="linkedin">
      <g clip-path="url(#clip0_1_476)">
        <path d="M19.9951 20V19.9992H20.0001V12.6642C20.0001 9.07587 19.2276 6.31171 15.0326 6.31171C13.0159 6.31171 11.6626 7.41837 11.1101 8.46754H11.0517V6.64671H7.07422V19.9992H11.2159V13.3875C11.2159 11.6467 11.5459 9.96337 13.7017 9.96337C15.8259 9.96337 15.8576 11.95 15.8576 13.4992V20H19.9951Z"/>
        <path d="M0.329956 6.64746H4.47662V20H0.329956V6.64746Z" />
        <path d="M2.40167 0C1.07583 0 0 1.07583 0 2.40167C0 3.7275 1.07583 4.82583 2.40167 4.82583C3.7275 4.82583 4.80333 3.7275 4.80333 2.40167C4.8025 1.07583 3.72667 0 2.40167 0V0Z"/>
      </g>
      <defs>
        <clipPath id="clip0_1_476">
          <rect width="20" height="20" fill="white"/>
        </clipPath>
      </defs>
        </symbol>

    </defs>
</svg>



